<svg fill="none" height="48" viewBox="0 0 48 48" width="48" xmlns="http://www.w3.org/2000/svg"><circle cx="24" cy="24" fill="#f2fbfc" r="24"/><path d="m32.39 31.37-4.01-1.37-1.38 4-3.08-6-2.92 6-1.38-4-4.01 1.37 2.92-6c-.96-1.2-1.53-2.72-1.53-4.37 0-1.8565.7375-3.637 2.0503-4.9497 1.3127-1.3128 3.0932-2.0503 4.9497-2.0503s3.637.7375 4.9498 2.0503c1.3127 1.3127 2.0502 3.0932 2.0502 4.9497 0 1.65-.57 3.17-1.53 4.37zm-13.39-10.37 2.69 1.34-.19 3 2.5-1.66 2.5 1.65-.17-2.99 2.67-1.34-2.68-1.35.18-2.98-2.5 1.64-2.5-1.66.17 3.01z" fill="#2896a9"/></svg>