<svg fill="none" height="48" viewBox="0 0 48 48" width="48" xmlns="http://www.w3.org/2000/svg"><circle cx="24" cy="24" fill="#f2fbfc" r="24"/><path d="m30.6 18.62c-1.44 0-2.8.56-3.77 1.53l-2.83 2.51-1.52 1.34h.01l-2.69 2.39c-.64.64-1.49.99-2.4.99-1.87 0-3.39-1.51-3.39-3.38s1.52-3.38 3.39-3.38c.91 0 1.76.35 2.44 1.03l1.13 1 1.51-1.34-1.26-1.11c-1.02-1.02-2.38-1.58-3.82-1.58-2.98 0-5.4 2.42-5.4 5.38s2.42 5.38 5.4 5.38c1.44 0 2.8-.56 3.77-1.53l2.83-2.5.01.01 1.51-1.36h-.01l2.69-2.39c.64-.64 1.49-.99 2.4-.99 1.87 0 3.39 1.51 3.39 3.38s-1.52 3.38-3.39 3.38c-.9 0-1.76-.35-2.44-1.03l-1.14-1.01-1.51 1.34 1.27 1.12c1.02 1.01 2.37 1.57 3.82 1.57 2.98 0 5.4-2.41 5.4-5.38s-2.42-5.37-5.4-5.37z" fill="#2896a9"/></svg>